<svg width="103" height="30" viewBox="0 0 103 30" fill="none" xmlns="http://www.w3.org/2000/svg">
<rect x="21.1768" width="10.5882" height="13.2353" rx="2.11765" fill="#D1D0FB"/>
<rect x="10.5879" y="6.88281" width="21.1765" height="13.2353" rx="2.11765" fill="#3733ED"/>
<g filter="url(#filter0_b_2560_1738)">
<rect y="13.7656" width="31.7647" height="13.2353" rx="2.11765" fill="#D9D9D9" fill-opacity="0.134"/>
<rect y="13.7656" width="31.7647" height="13.2353" rx="2.11765" fill="url(#paint0_linear_2560_1738)" fill-opacity="0.134"/>
<rect x="0.0705883" y="13.8362" width="31.6235" height="13.0941" rx="2.04706" stroke="url(#paint1_linear_2560_1738)" stroke-width="0.141177"/>
<rect x="0.0705883" y="13.8362" width="31.6235" height="13.0941" rx="2.04706" stroke="url(#paint2_linear_2560_1738)" stroke-opacity="0.5" stroke-width="0.141177"/>
</g>
<path d="M86.9261 29.9996C86.7123 29.9996 86.5391 29.8263 86.5391 29.6125V7.58819C86.5391 7.37445 86.7123 7.20117 86.9261 7.20117H90.9534C90.9535 7.20117 90.9535 7.20123 90.9535 7.20131C90.9535 7.20138 90.9536 7.20144 90.9536 7.20144H91.1349C91.1349 7.20144 91.1349 7.20144 91.1349 7.20144C91.1351 7.20144 93.0702 7.20166 95.8215 7.20166L101.893 7.2012C102.107 7.20118 102.28 7.37446 102.28 7.58822V15.6375V23.7165C102.28 23.9303 102.107 24.1036 101.893 24.1036H95.8215C93.1309 24.1036 91.1355 24.1026 91.1349 24.1026C91.1349 24.1026 91.1349 24.1026 91.1349 24.1026C91.0681 24.1026 91.014 24.1568 91.014 24.2235V29.6125C91.014 29.8263 90.8407 29.9996 90.627 29.9996H86.9261ZM90.9233 15.6072L91.007 20.1558C91.0109 20.3667 91.183 20.5357 91.3939 20.5357H94.4004H97.5208C97.7345 20.5357 97.9078 20.3624 97.9078 20.1487V15.6072V11.1565C97.9078 10.9428 97.7345 10.7695 97.5208 10.7695H94.4004H91.3381C91.1253 10.7695 90.9524 10.9413 90.9511 11.1541L90.9233 15.6072Z" fill="#0500E8"/>
<path d="M78.973 23.8322C78.7592 23.8322 78.5859 23.6589 78.5859 23.4452V7.80108C78.5859 7.58734 78.7592 7.41406 78.973 7.41406H82.6738C82.8876 7.41406 83.0609 7.58734 83.0609 7.80108V23.4452C83.0609 23.6589 82.8876 23.8322 82.6738 23.8322H78.973Z" fill="#0500E8"/>
<path d="M62.0355 23.8322C61.8217 23.8322 61.6484 23.6589 61.6484 23.4452V21.2779C61.6484 21.1894 61.6787 21.1036 61.7343 21.0348L69.7318 11.1274C69.7447 11.1115 69.7517 11.0917 69.7517 11.0713C69.7517 11.0219 69.7117 10.9819 69.6623 10.9819H62.3076C62.0938 10.9819 61.9206 10.8086 61.9206 10.5949V7.80108C61.9206 7.58734 62.0938 7.41406 62.3076 7.41406H74.7467C74.9604 7.41406 75.1337 7.58734 75.1337 7.80108V10.2146C75.1337 10.3004 75.1052 10.3838 75.0526 10.4516L67.5633 20.119C67.5511 20.1348 67.5444 20.1542 67.5444 20.1742C67.5444 20.224 67.5848 20.2643 67.6346 20.2643H75.0188C75.2325 20.2643 75.4058 20.4376 75.4058 20.6514V23.4452C75.4058 23.6589 75.2325 23.8322 75.0188 23.8322H62.0355Z" fill="#0500E8"/>
<path d="M58.5529 7.4131C58.7667 7.4131 58.94 7.58637 58.94 7.80012V10.3823C58.94 10.596 58.7667 10.7693 58.5529 10.7693H56.2429C56.0292 10.7693 55.8559 10.9426 55.8559 11.1563V18.7818L55.8555 19.9667C55.8555 20.1805 56.0287 20.3539 56.2425 20.3539L58.7949 20.3541C59.0086 20.3541 59.1819 20.5273 59.1819 20.7411V23.5046C59.1819 23.7184 59.0086 23.8917 58.7948 23.8917L51.7684 23.8912C51.5547 23.8912 51.3814 23.718 51.3814 23.5042L51.381 19.4168V11.1563C51.381 10.9426 51.2077 10.7693 50.994 10.7693H49.5003C49.2866 10.7693 49.1133 10.596 49.1133 10.3823V7.80012C49.1133 7.58637 49.2866 7.4131 49.5003 7.4131H50.994C51.2077 7.4131 51.381 7.23982 51.381 7.02607V3.86944C51.381 3.6557 51.5543 3.48242 51.768 3.48242H55.4689C55.6826 3.48242 55.8559 3.6557 55.8559 3.86944V7.02607C55.8559 7.23982 56.0292 7.4131 56.2429 7.4131H58.5529Z" fill="#0500E8"/>
<path d="M46.5019 1.94141C46.7156 1.94141 46.8889 2.11468 46.8889 2.32843V23.4452C46.8889 23.659 46.7156 23.8322 46.5019 23.8322H42.7405C42.5268 23.8322 42.3535 23.659 42.3535 23.4452V2.32843C42.3535 2.11468 42.5268 1.94141 42.7405 1.94141H46.5019Z" fill="#0500E8"/>
<rect x="78.5859" y="1.96484" width="4.45073" height="3.09616" rx="0.38702" fill="#0500E8"/>
<defs>
<filter id="filter0_b_2560_1738" x="-5.64706" y="8.11856" width="43.0588" height="24.5285" filterUnits="userSpaceOnUse" color-interpolation-filters="sRGB">
<feFlood flood-opacity="0" result="BackgroundImageFix"/>
<feGaussianBlur in="BackgroundImageFix" stdDeviation="2.82353"/>
<feComposite in2="SourceAlpha" operator="in" result="effect1_backgroundBlur_2560_1738"/>
<feBlend mode="normal" in="SourceGraphic" in2="effect1_backgroundBlur_2560_1738" result="shape"/>
</filter>
<linearGradient id="paint0_linear_2560_1738" x1="15.8824" y1="18.9834" x2="15.8824" y2="27.0009" gradientUnits="userSpaceOnUse">
<stop stop-color="#3733ED" stop-opacity="0"/>
<stop offset="1" stop-color="#3733ED"/>
</linearGradient>
<linearGradient id="paint1_linear_2560_1738" x1="6.06886" y1="9.69322" x2="8.39503" y2="19.3701" gradientUnits="userSpaceOnUse">
<stop stop-color="white"/>
<stop offset="1" stop-color="white" stop-opacity="0"/>
</linearGradient>
<linearGradient id="paint2_linear_2560_1738" x1="15.8824" y1="13.7656" x2="8.22599" y2="27.1071" gradientUnits="userSpaceOnUse">
<stop stop-color="white" stop-opacity="0"/>
<stop offset="1" stop-color="#DCDCDC"/>
</linearGradient>
</defs>
</svg>