<svg width="30" height="30" viewBox="0 0 30 30" fill="none" xmlns="http://www.w3.org/2000/svg">
<path d="M25.6999 8.71996L25.6999 8.71999C26.7357 10.1228 27.2373 11.6229 27.2373 13.2456C27.2373 14.8684 26.7356 16.3715 25.699 17.7798L26.4326 18.3198L25.699 17.7798C24.6552 19.1981 23.2253 20.3378 21.3738 21.1873C19.5277 22.0343 17.5011 22.4638 15.2793 22.4638C14.5842 22.4638 13.8615 22.4141 13.1109 22.3134L12.7103 22.2597L12.3783 22.4901C10.7141 23.645 9.43258 24.5197 8.53045 25.1167C8.74052 24.3767 9.02082 23.4168 9.37189 22.2353L9.62136 21.3957L8.83719 21.0056C7.10642 20.1445 5.76189 19.0194 4.77332 17.6385L4.7733 17.6385C3.79565 16.273 3.32129 14.8167 3.32129 13.2456C3.32129 11.6229 3.82292 10.1228 4.85864 8.71999L4.85865 8.71997C5.90203 7.30674 7.33408 6.16893 9.19121 5.31886L8.76004 4.37689L9.19121 5.31886C11.0431 4.47118 13.0679 4.042 15.2793 4.042C17.4907 4.042 19.5155 4.47118 21.3674 5.31886C23.2245 6.16894 24.6566 7.30674 25.6999 8.71996Z" stroke="black" stroke-width="2.08399"/>
</svg>
