<svg width="30" height="30" viewBox="0 0 30 30" fill="none" xmlns="http://www.w3.org/2000/svg">
<path d="M23.5322 26.2617L23.5322 17.676L25.8933 17.676L25.8933 23.8087L23.5322 26.2617Z" fill="black"/>
<path d="M4 23.9014H25.8936L23.461 26.2624H6.43262L4 23.9014Z" fill="black"/>
<path d="M6.3623 4.36816L6.3623 26.2618L4.00123 23.8291L4.00123 6.80079L6.3623 4.36816Z" fill="black"/>
<path d="M12.8008 6.72949L4.00041 6.72949L6.43322 4.36842L12.8003 4.36842L12.8008 6.72949Z" fill="black"/>
<path fill-rule="evenodd" clip-rule="evenodd" d="M27.1709 3H27.1716V5.35077H27.1709V12.5397L24.8206 13.7322V12.5397L24.8206 6.99489L16.5921 15.3152L14.9482 13.653L23.1587 5.35077H17.6319H16.4395L17.6319 3H24.8206H27.1709Z" fill="black"/>
</svg>
