<svg width="24" height="25" viewBox="0 0 24 25" fill="none" xmlns="http://www.w3.org/2000/svg">
<path fill-rule="evenodd" clip-rule="evenodd" d="M17 7.5C17 10.2614 14.7614 12.5 12 12.5C9.23858 12.5 7 10.2614 7 7.5C7 4.73858 9.23858 2.5 12 2.5C14.7614 2.5 17 4.73858 17 7.5ZM15 7.5C15 9.15685 13.6569 10.5 12 10.5C10.3431 10.5 9 9.15685 9 7.5C9 5.84315 10.3431 4.5 12 4.5C13.6569 4.5 15 5.84315 15 7.5ZM3 16.5L5 14.5H19L21 16.5V20.5L19 22.5001H5L3 20.5V16.5ZM5 16.5V20.5H19V16.5H5Z" fill="#111111"/>
</svg>
