<svg width="24" height="25" viewBox="0 0 24 25" fill="none" xmlns="http://www.w3.org/2000/svg">
<path fill-rule="evenodd" clip-rule="evenodd" d="M12 20.5C12.2151 20.5 12.9482 20.2737 13.7467 18.6766C14.3857 17.3986 14.8571 15.594 14.9726 13.5L9.02739 13.5C9.14295 15.594 9.61429 17.3986 10.2533 18.6766C11.0518 20.2737 11.7849 20.5 12 20.5ZM9.02739 11.5H14.9726C14.8571 9.40602 14.3857 7.60143 13.7467 6.32336C12.9482 4.72632 12.2151 4.5 12 4.5C11.7849 4.5 11.0518 4.72632 10.2533 6.32336C9.61429 7.60143 9.14295 9.40602 9.02739 11.5ZM8.53731 5.28617C7.70258 6.88927 7.1455 9.0663 7.02469 11.5H4.06189C4.40437 8.75357 6.13899 6.43948 8.53731 5.28617ZM15.4627 5.28617C17.6251 6.32602 19.2479 8.3095 19.7973 10.7027L21.4053 9.09475C20.0124 5.24839 16.3271 2.5 12 2.5C6.47715 2.5 2 6.97715 2 12.5C2 18.0228 6.47715 22.5 12 22.5C17.1853 22.5 21.4489 18.5533 21.9506 13.5L19.9381 13.5C19.5956 16.2464 17.861 18.5605 15.4627 19.7138C16.2974 18.1107 16.8545 15.9337 16.9753 13.5H17L19 11.5H16.9753C16.8545 9.0663 16.2974 6.88927 15.4627 5.28617ZM8.53731 19.7138C6.13899 18.5605 4.40437 16.2464 4.06189 13.5L7.02469 13.5C7.1455 15.9337 7.70259 18.1107 8.53731 19.7138Z" fill="#111111"/>
</svg>
