<svg width="24" height="25" viewBox="0 0 24 25" fill="none" xmlns="http://www.w3.org/2000/svg">
<path fill-rule="evenodd" clip-rule="evenodd" d="M10.0026 6.6828C8.62932 5.2626 6.39329 5.2626 5.02003 6.6828C3.65996 8.08936 3.65993 10.3593 5.01993 11.7659L12 20.0413L18.9799 11.766C20.34 10.3594 20.34 8.0894 18.9799 6.6828C17.6067 5.2626 15.3706 5.2626 13.9974 6.6828L12 8.74847L10.0026 6.6828ZM3.62256 5.16787C5.77289 2.94404 9.24973 2.94404 11.4001 5.16787L12 5.7883L12.5999 5.16787C14.7502 2.94404 18.2271 2.94404 20.3774 5.16787C22.5409 7.40531 22.5409 11.0435 20.3774 13.2809L13.4518 21.5H10.5481L3.62266 13.281C1.45918 11.0436 1.45908 7.40531 3.62256 5.16787Z" fill="#111111"/>
</svg>
