<svg width="24" height="25" viewBox="0 0 24 25" fill="none" xmlns="http://www.w3.org/2000/svg">
<path fill-rule="evenodd" clip-rule="evenodd" d="M3.08008 4.5L5.08008 2.5H17.0801L19.0801 4.5V10.5H17.0801V4.5H5.08008L5.08008 20.5L19.0801 20.5L17.0801 22.5L5.08008 22.5L3.08008 20.5V4.5ZM7.08008 18.5V12.5H10.0701L11.4701 13.9V15.31L10.0701 16.71H8.48008V18.5H7.08008ZM8.48008 13.9V15.31H10.0701V13.9H8.48008ZM12.0801 12.5V18.5H15.0701L16.4701 17.1V13.9L15.0801 12.5H12.0901H12.0801ZM15.0701 17.1H13.4801V13.9H15.0701V17.1ZM18.4801 18.5H17.0801V13.9L18.4801 12.5H20.9199V13.9H18.4801L18.4701 14.93H20.9199V16.33H18.4701L18.4801 18.5Z" fill="#111111"/>
</svg>
