<svg width="24" height="25" viewBox="0 0 24 25" fill="none" xmlns="http://www.w3.org/2000/svg">
<path fill-rule="evenodd" clip-rule="evenodd" d="M17 11C17 14.5899 14.0899 17.5 10.5 17.5C6.91015 17.5 4 14.5899 4 11C4 7.41015 6.91015 4.5 10.5 4.5C14.0899 4.5 17 7.41015 17 11ZM14.8212 18.3212C13.555 19.0702 12.0777 19.5 10.5 19.5C5.80558 19.5 2 15.6944 2 11C2 6.30558 5.80558 2.5 10.5 2.5C15.1944 2.5 19 6.30558 19 11C19 13.3472 18.0486 15.4722 16.5104 17.0104L17 17.5L22 22.5H19L14.8212 18.3212Z" fill="#111111"/>
</svg>
