<svg width="24" height="25" viewBox="0 0 24 25" fill="none" xmlns="http://www.w3.org/2000/svg">
<path fill-rule="evenodd" clip-rule="evenodd" d="M13 6.5C13 6.83707 13.0417 7.1644 13.1202 7.47712L8.9212 9.76748C8.19127 8.98747 7.15256 8.5 6 8.5C3.79086 8.5 2 10.2909 2 12.5C2 14.7091 3.79086 16.5 6 16.5C7.15258 16.5 8.19131 16.0125 8.92125 15.2325L13.1202 17.5228C13.0417 17.8356 13 18.1629 13 18.5C13 20.7091 14.7909 22.5 17 22.5C19.2091 22.5 21 20.7091 21 18.5C21 16.2909 19.2091 14.5 17 14.5C15.8474 14.5 14.8087 14.9875 14.0788 15.7675L9.87979 13.4771C9.9583 13.1644 10 12.8371 10 12.5C10 12.1629 9.9583 11.8355 9.87978 11.5228L14.0787 9.23246C14.8087 10.0125 15.8474 10.5 17 10.5C19.2091 10.5 21 8.70914 21 6.5C21 4.29086 19.2091 2.5 17 2.5C14.7909 2.5 13 4.29086 13 6.5ZM17 8.5C18.1046 8.5 19 7.60457 19 6.5C19 5.39543 18.1046 4.5 17 4.5C15.9117 4.5 15.0264 5.36931 15.0006 6.45146C15.0002 6.46759 15 6.48377 15 6.5C15 7.22279 15.3834 7.85603 15.958 8.20743C16.2614 8.39303 16.6182 8.5 17 8.5ZM6 10.5C6.38174 10.5 6.7385 10.607 7.04195 10.7925C7.61654 11.1439 8 11.7772 8 12.5C8 13.2228 7.61657 13.8561 7.04201 14.2074C6.73855 14.393 6.38176 14.5 6 14.5C4.89543 14.5 4 13.6046 4 12.5C4 11.3954 4.89543 10.5 6 10.5ZM15.958 16.7925C15.3834 17.1439 15 17.7772 15 18.5C15 18.5162 15.0002 18.5324 15.0006 18.5485C15.0263 19.6307 15.9116 20.5 17 20.5C18.1046 20.5 19 19.6046 19 18.5C19 17.3954 18.1046 16.5 17 16.5C16.6182 16.5 16.2615 16.607 15.958 16.7925Z" fill="#111111"/>
</svg>
