<svg width="24" height="25" viewBox="0 0 24 25" fill="none" xmlns="http://www.w3.org/2000/svg">
<path fill-rule="evenodd" clip-rule="evenodd" d="M2 5.5L4 3.5H8L10 5.5H4L4 12.4996C4.83566 11.8719 5.87439 11.5 7 11.5C9.41896 11.5 11.4367 13.2178 11.9 15.5H12.1C12.5633 13.2178 14.581 11.5 17 11.5C18.1256 11.5 19.1643 11.8719 20 12.4996V5.5H14L16 3.5H20L22 5.5V16.5C22 19.2614 19.7614 21.5 17 21.5C14.581 21.5 12.5633 19.7822 12.1 17.5H11.9C11.4367 19.7822 9.41896 21.5 7 21.5C4.23858 21.5 2 19.2614 2 16.5V5.5ZM17 13.5C18.6569 13.5 20 14.8431 20 16.5C20 18.1569 18.6569 19.5 17 19.5C15.3431 19.5 14 18.1569 14 16.5C14 14.8431 15.3431 13.5 17 13.5ZM4 16.5C4 18.1569 5.34315 19.5 7 19.5C8.65685 19.5 10 18.1569 10 16.5C10 14.8431 8.65685 13.5 7 13.5C5.34315 13.5 4 14.8431 4 16.5Z" fill="black"/>
</svg>
