<svg width="24" height="24" viewBox="0 0 24 24" fill="none" xmlns="http://www.w3.org/2000/svg">
<path fill-rule="evenodd" clip-rule="evenodd" d="M4.70078 12.0008C4.70078 7.9691 7.9691 4.70078 12.0008 4.70078C16.0325 4.70078 19.3008 7.9691 19.3008 12.0008C19.3008 16.0325 16.0325 19.3008 12.0008 19.3008C7.9691 19.3008 4.70078 16.0325 4.70078 12.0008ZM12.0008 3.30078C7.1959 3.30078 3.30078 7.1959 3.30078 12.0008C3.30078 16.8057 7.1959 20.7008 12.0008 20.7008C16.8057 20.7008 20.7008 16.8057 20.7008 12.0008C20.7008 7.1959 16.8057 3.30078 12.0008 3.30078ZM12.7008 11.6721V8H11.3008V12.3279L14.5527 15.0378L15.4489 13.9622L12.7008 11.6721Z" fill="#111111"/>
</svg>
